<svg width="40" height="40" viewBox="0 0 40 40" fill="none" xmlns="http://www.w3.org/2000/svg">
<path d="M16.1876 6.06659C17.156 5.24159 17.641 4.82825 18.1476 4.58659C18.7259 4.31067 19.3586 4.16748 19.9993 4.16748C20.64 4.16748 21.2727 4.31067 21.851 4.58659C22.3576 4.82825 22.8426 5.24159 23.811 6.06659C24.8093 6.91659 25.8226 7.34659 27.156 7.45159C28.4243 7.55325 29.0593 7.60492 29.5893 7.79159C30.8126 8.22492 31.776 9.18659 32.2076 10.4116C32.3943 10.9399 32.446 11.5749 32.5476 12.8449C32.6526 14.1783 33.081 15.1899 33.931 16.1883C34.7576 17.1566 35.171 17.6416 35.4126 18.1483C35.9726 19.3199 35.9726 20.6816 35.4126 21.8516C35.171 22.3583 34.7576 22.8433 33.9326 23.8116C33.1067 24.7383 32.6186 25.9172 32.5476 27.1566C32.446 28.4249 32.3943 29.0599 32.2076 29.5899C31.9936 30.194 31.6473 30.7426 31.194 31.1957C30.7407 31.6487 30.1919 31.9946 29.5876 32.2083C29.0593 32.3949 28.4243 32.4466 27.1543 32.5483C25.821 32.6533 24.8093 33.0816 23.811 33.9316C22.8426 34.7583 22.3576 35.1716 21.851 35.4133C21.2727 35.6892 20.64 35.8324 19.9993 35.8324C19.3586 35.8324 18.7259 35.6892 18.1476 35.4133C17.641 35.1716 17.156 34.7583 16.1876 33.9333C15.2609 33.1073 14.082 32.6192 12.8426 32.5483C11.5743 32.4466 10.9393 32.3949 10.4093 32.2083C9.8052 31.9943 9.25658 31.6479 8.80355 31.1946C8.35053 30.7413 8.00456 30.1925 7.79096 29.5883C7.60429 29.0599 7.55262 28.4249 7.45096 27.1549C7.38011 25.9164 6.8926 24.7381 6.06762 23.8116C5.24096 22.8433 4.82762 22.3583 4.58429 21.8516C4.30863 21.2732 4.16573 20.6405 4.16602 19.9997C4.1663 19.359 4.30978 18.7264 4.58596 18.1483C4.82762 17.6416 5.24096 17.1566 6.06596 16.1883C6.93262 15.1699 7.34762 14.1499 7.45096 12.8433C7.55262 11.5749 7.60429 10.9399 7.79096 10.4099C8.00495 9.80583 8.35126 9.25721 8.80457 8.80418C9.25789 8.35116 9.80673 8.00519 10.411 7.79159C10.9393 7.60492 11.5743 7.55325 12.8443 7.45159C14.0829 7.38074 15.2611 6.89157 16.1876 6.06659Z" stroke="#F23D4C" stroke-width="2.5" stroke-linecap="round" stroke-linejoin="round"/>
<path d="M14.4453 21.055L16.9536 23.9233C17.1187 24.1122 17.3243 24.2614 17.555 24.3598C17.7858 24.4581 18.0358 24.5032 18.2863 24.4915C18.5369 24.4798 18.7816 24.4117 19.0022 24.2922C19.2228 24.1728 19.4136 24.0051 19.5603 23.8017L25.5553 15.5" stroke="#F23D4C" stroke-width="2.5" stroke-linecap="round" stroke-linejoin="round"/>
</svg>
